<svg xmlns="http://www.w3.org/2000/svg" viewBox="0 0 127.99 38.23"><path d="m 17.4736,27.6221 c 0,0 0,-15.6377 0,-15.6377 0,-2.3057 -0.4443,-3.9893 -1.333,-5.0518 C 15.2529,5.8711 13.8027,5.3408 11.789,5.3408 10.8584,5.3408 9.8652,5.6025 8.8066,6.125 7.749,6.6475 6.9248,7.2959 6.334,8.0693 c 0,0 0,19.5528 0,19.5528 0,0 -6.334,0 -6.334,0 0,0 0,-27.1651 0,-27.1651 0,0 4.5634,0 4.5634,0 0,0 1.1661,2.5352 1.1661,2.5352 C 7.455,0.999 9.997,0 13.3632,0 c 3.2266,0 5.7735,0.9668 7.6417,2.8994 1.8671,1.9336 2.8027,4.6289 2.8027,8.0879 0,0 0,16.6348 0,16.6348 0,0 -6.334,0 -6.334,0 z"/><path transform="translate(53.026,0)" d="m 10.378,5.417 c 2.914,0 5.0039,0.6533 6.2675,1.9609 1.2647,1.3067 1.8956,3.5606 1.8956,6.7637 0,3.0005 -0.6358,5.1965 -1.9083,6.5855 -1.2734,1.393 -3.3662,2.087 -6.2812,2.087 -1.5332,0 -2.873,-0.464 -4.0186,-1.392 0,0 0,-14.2336 0,-14.2336 C 7.5118,6.0088 8.8614,5.417 10.378,5.417 z m 1.4072,22.7381 c 4.1435,0 7.4121,-1.199 9.8046,-3.597 2.393,-2.4 3.59,-5.821 3.59,-10.2632 C 25.1798,4.7666 20.8508,0 12.1934,0 9.876,0 7.9229,0.7617 6.333,2.2832 c 0,0 0,-1.8262 0,-1.8262 0,0 -6.333,0 -6.333,0 0,0 0,37.7701 0,37.7701 0,0 6.333,0 6.333,0 0,0 0,-11.263 0,-11.263 1.6407,0.795 3.4571,1.191 5.4522,1.191 z"/><path transform="translate(109.676,0)" d="M 15.64,6.4101 C 14.511,5.6973 13.277,5.3408 11.932,5.3408 c -1.464,0 -2.761,0.666 -3.896,1.9961 -1.136,1.3301 -1.702,2.9561 -1.702,4.876 0,0 0,15.4092 0,15.4092 0,0 -6.334,0 -6.334,0 0,0 0,-27.1651 0,-27.1651 0,0 6.334,0 6.334,0 0,0 0,2.5947 0,2.5947 C 8.098,1.0185 10.444,0 13.369,0 c 2.152,0 3.801,0.3301 4.944,0.9883 0,0 -2.673,5.4218 -2.673,5.4218 z"/></svg>